<?xml version="1.0" encoding="iso-8859-1"?>
<!-- Uploaded to: SVG Repo, www.svgrepo.com, Generator: SVG Repo Mixer Tools -->
<svg version="1.1" id="Layer_1" xmlns="http://www.w3.org/2000/svg" xmlns:xlink="http://www.w3.org/1999/xlink" 
	 viewBox="0 0 512.001 512.001" xml:space="preserve">
<circle style="fill:#FFDC64;" cx="256" cy="308.065" r="134.574"/>
<circle style="fill:#46AFA7;" cx="256" cy="308.065" r="58.404"/>
<path d="M256,379.006c-39.115,0-70.938-31.823-70.938-70.938S216.885,237.13,256,237.13s70.938,31.823,70.938,70.938
	S295.115,379.006,256,379.006z M256,262.197c-25.293,0-45.871,20.578-45.871,45.871s20.578,45.871,45.871,45.871
	s45.871-20.576,45.871-45.871S281.293,262.197,256,262.197z"/>
<rect x="165.131" y="54.309" style="fill:#46AFA7;" width="181.738" height="74.262"/>
<g>
	<ellipse style="fill:#F96232;" cx="403.271" cy="177.866" rx="96.196" ry="20.994"/>
	<ellipse style="fill:#F96232;" cx="108.729" cy="177.866" rx="96.196" ry="20.994"/>
</g>
<path d="M473.963,150.783c-15.997-3.492-36.305-5.656-58.159-6.259v-9.74c0-6.922-5.613-12.534-12.534-12.534
	s-12.534,5.611-12.534,12.534v9.74c-21.855,0.603-42.162,2.769-58.159,6.259c-12.282,2.68-27.602,7.128-34.445,16.333
	c-9.502-2.845-19.403-4.754-29.599-5.619v-20.385h78.335c6.921,0,12.534-5.611,12.534-12.534V54.312
	c0-6.922-5.613-12.534-12.534-12.534H165.131c-6.921,0-12.534,5.611-12.534,12.534v74.266c0,6.922,5.613,12.534,12.534,12.534
	h78.335v20.385c-10.196,0.865-20.098,2.774-29.599,5.619c-6.842-9.205-22.163-13.653-34.445-16.333
	c-15.997-3.492-36.305-5.656-58.159-6.259v-9.74c0-6.922-5.613-12.534-12.534-12.534c-6.921,0-12.534,5.611-12.534,12.534v9.74
	c-21.855,0.603-42.162,2.769-58.159,6.259C21.707,154.345,0,161.031,0,177.872s21.707,23.527,38.037,27.09
	c15.997,3.492,36.305,5.656,58.159,6.259v172.972l-45.262,66.437c-3.897,5.72-2.419,13.518,3.303,17.416
	c5.718,3.897,13.516,2.42,17.416-3.301l37.078-54.425l37.078,54.425c2.427,3.561,6.363,5.478,10.369,5.478
	c2.429,0,4.886-0.706,7.045-2.177c5.72-3.897,7.199-11.694,3.303-17.416l-45.263-66.437V367.09
	c22.786,51.813,74.6,88.088,134.737,88.088s111.951-36.275,134.737-88.088v17.103l-45.262,66.437
	c-3.897,5.72-2.419,13.518,3.303,17.416c5.719,3.897,13.516,2.42,17.415-3.301l37.078-54.425l37.078,54.425
	c2.427,3.561,6.363,5.478,10.369,5.478c2.429,0,4.886-0.706,7.045-2.177c5.72-3.897,7.199-11.694,3.303-17.416l-45.262-66.437
	V211.222c21.855-0.603,42.162-2.767,58.159-6.259c16.329-3.563,38.037-10.249,38.037-27.09S490.293,154.345,473.963,150.783z
	 M177.665,103.979h79.918c6.921,0,12.534-5.611,12.534-12.534c0-6.922-5.613-12.534-12.534-12.534h-79.918V66.846h156.671v49.198
	H177.665V103.979z M390.737,169.589v16.567c-30.034-0.851-51.385-4.664-63.008-8.283
	C339.351,174.252,360.702,170.44,390.737,169.589z M184.271,177.872c-11.624,3.62-32.974,7.432-63.008,8.283v-16.567
	C151.298,170.44,172.649,174.252,184.271,177.872z M33.188,177.872c11.624-3.62,32.974-7.432,63.008-8.283v16.567
	C66.161,185.305,44.81,181.493,33.188,177.872z M121.263,211.222c8.774-0.242,17.301-0.732,25.396-1.463
	c-10.427,11.585-19.039,24.83-25.396,39.285V211.222z M256,430.112c-67.294,0-122.044-54.748-122.044-122.044
	S188.706,186.023,256,186.023s122.044,54.75,122.044,122.045S323.294,430.112,256,430.112z M365.341,209.759
	c8.094,0.732,16.622,1.221,25.396,1.463v37.823C384.38,234.589,375.768,221.344,365.341,209.759z M415.804,186.156v-16.567
	c30.034,0.851,51.385,4.664,63.008,8.283C467.19,181.493,445.839,185.305,415.804,186.156z"/>
<path d="M295.18,103.979c-0.815,0-1.642-0.088-2.444-0.251c-0.802-0.15-1.592-0.401-2.344-0.714
	c-0.763-0.313-1.49-0.702-2.167-1.153c-0.689-0.451-1.33-0.978-1.906-1.554s-1.103-1.216-1.553-1.905
	c-0.451-0.677-0.84-1.404-1.153-2.168c-0.313-0.752-0.551-1.542-0.714-2.344c-0.163-0.802-0.251-1.629-0.251-2.444
	s0.088-1.642,0.251-2.444s0.401-1.592,0.714-2.356c0.313-0.752,0.702-1.479,1.153-2.156c0.45-0.689,0.976-1.329,1.553-1.905
	c0.577-0.577,1.217-1.103,1.906-1.567c0.677-0.451,1.404-0.84,2.167-1.141c0.753-0.313,1.542-0.564,2.344-0.714
	c1.617-0.326,3.284-0.326,4.901,0c0.802,0.15,1.579,0.401,2.344,0.714c0.752,0.301,1.479,0.689,2.156,1.141
	c0.689,0.464,1.33,0.99,1.906,1.567c0.577,0.577,1.103,1.216,1.567,1.905c0.45,0.677,0.84,1.404,1.153,2.156
	c0.313,0.765,0.55,1.554,0.713,2.356c0.164,0.802,0.238,1.629,0.238,2.444s-0.075,1.642-0.238,2.444s-0.4,1.592-0.713,2.344
	c-0.313,0.765-0.703,1.492-1.153,2.168c-0.464,0.689-0.99,1.329-1.567,1.905c-0.577,0.577-1.217,1.103-1.906,1.554
	c-0.677,0.451-1.404,0.84-2.156,1.153c-0.765,0.313-1.542,0.564-2.344,0.714C296.821,103.891,296.007,103.979,295.18,103.979z"/>
</svg>