<?xml version="1.0" encoding="iso-8859-1"?>
<!-- Uploaded to: SVG Repo, www.svgrepo.com, Generator: SVG Repo Mixer Tools -->
<svg height="800px" width="800px" version="1.1" id="Layer_1" xmlns="http://www.w3.org/2000/svg" xmlns:xlink="http://www.w3.org/1999/xlink" 
	 viewBox="0 0 512 512" xml:space="preserve">
<circle style="fill:#FF9839;" cx="256" cy="256" r="245.801"/>
<g>
	<path style="fill:#4C1D1D;" d="M437.019,74.98C388.667,26.628,324.381,0,256,0S123.333,26.628,74.981,74.98
		C26.628,123.333,0,187.62,0,256s26.628,132.667,74.981,181.02C123.333,485.372,187.619,512,256,512s132.667-26.628,181.019-74.98
		C485.372,388.667,512,324.38,512,256S485.372,123.333,437.019,74.98z M256,491.602c-127.522,0-231.695-101.841-235.484-228.462
		h28.57c1.006,30.249,8.404,59.215,22.055,86.199c1.796,3.55,5.384,5.597,9.109,5.597c1.549,0,3.12-0.354,4.596-1.1
		c5.027-2.543,7.039-8.679,4.497-13.706C76.08,313.911,69.355,285.605,69.355,256c0-71.737,40.023-135.966,104.451-167.622
		c5.055-2.485,7.139-8.596,4.656-13.652c-2.486-5.056-8.596-7.139-13.653-4.656c-34.228,16.817-63.153,42.748-83.653,74.99
		c-18.695,29.408-29.562,62.936-31.772,97.681H20.779C27.68,118.975,130.539,20.398,256,20.398c36.98,0,71.992,8.574,103.168,23.823
		l-14.606,24.566C317.249,55.864,287.102,48.956,256,48.956c-5.632,0-10.199,4.566-10.199,10.199S250.368,69.355,256,69.355
		c55.952,0,108.475,24.791,144.103,68.015c2.017,2.447,4.935,3.713,7.877,3.713c2.284,0,4.581-0.764,6.481-2.329
		c4.347-3.583,4.966-10.011,1.383-14.357c-15.254-18.506-33.309-33.95-53.289-45.958l14.544-24.461
		C445.645,95.222,491.602,170.341,491.602,256C491.602,385.911,385.911,491.602,256,491.602z"/>
	<path style="fill:#4C1D1D;" d="M425.466,177.671c1.724,3.725,5.411,5.917,9.262,5.917c1.434,0,2.891-0.304,4.279-0.946
		c5.111-2.367,7.335-8.43,4.969-13.54c-1.501-3.242-3.11-6.492-4.781-9.656c-2.629-4.981-8.802-6.888-13.781-4.257
		c-4.981,2.63-6.888,8.8-4.257,13.781C422.663,171.821,424.112,174.748,425.466,177.671z"/>
	<path style="fill:#4C1D1D;" d="M452.845,245.801c-5.632,0-10.199,4.566-10.199,10.199c0,2.794-0.073,5.57-0.196,8.334
		l-28.437-3.468c0.05-1.619,0.074-3.24,0.074-4.866c0-58.078-31.747-111.366-82.851-139.069c-4.953-2.684-11.143-0.846-13.827,4.106
		c-2.685,4.952-0.847,11.143,4.105,13.827c44.521,24.132,72.176,70.549,72.176,121.136c0,45.384-22.367,87.844-59.83,113.578
		c-4.644,3.189-5.822,9.539-2.631,14.182c1.977,2.878,5.168,4.425,8.415,4.425c1.99,0,4.002-0.581,5.766-1.793
		c35.984-24.719,59.822-62.886,66.65-105.216l28.389,3.463C426.629,374.009,349.18,442.645,256,442.645
		c-16.835,0-33.421-2.246-49.388-6.613l9.645-27.005c12.703,3.3,26.02,5.061,39.742,5.061c5.632,0,10.199-4.566,10.199-10.199
		s-4.567-10.199-10.199-10.199c-75.922,0-137.689-61.767-137.689-137.689c0-5.633-4.567-10.199-10.199-10.199
		S97.912,250.367,97.912,256c0,66.281,41.005,123.155,98.976,146.613l-9.629,26.962c-11.759-4.659-23.069-10.527-33.759-17.566
		c-4.705-3.098-11.028-1.796-14.128,2.91c-3.098,4.705-1.795,11.029,2.911,14.128c33.781,22.241,73.104,33.998,113.717,33.998
		c114.165,0,207.044-92.879,207.044-207.044C463.044,250.367,458.477,245.801,452.845,245.801z"/>
	<path style="fill:#4C1D1D;" d="M256.673,284.157c1.343,0,2.689-0.92,2.689-1.91v-2.052c8.278-1.344,13.937-6.651,13.937-15.423
		c0-9.551-7.499-12.876-13.937-15.281v-10.329c4.599,0.354,5.943,2.617,8.278,2.617c3.113,0,4.387-3.891,4.387-5.801
		c0-4.882-8.278-6.013-12.664-6.155v-1.768c0-0.99-1.344-1.91-2.689-1.91c-1.556,0-2.689,0.92-2.689,1.91v1.981
		c-7.501,1.062-14.15,5.377-14.15,14.363c0,9.056,7.641,12.098,14.15,14.575v11.461c-5.236-0.92-7.641-5.093-10.612-5.093
		c-2.689,0-4.811,3.537-4.811,5.943c0,4.527,6.933,8.914,15.423,9.198v1.769C253.985,283.237,255.117,284.157,256.673,284.157z
		 M258.655,260.881c2.547,1.202,4.315,2.689,4.315,5.023c0,2.547-1.91,3.891-4.315,4.457V260.881L258.655,260.881z M250.164,243.336
		c0-1.698,1.343-3.325,4.527-3.961v8.418C252.004,246.661,250.164,245.387,250.164,243.336z"/>
	<path style="fill:#4C1D1D;" d="M118.325,200.927c1.43,0.692,2.941,1.019,4.431,1.019c3.79,0,7.431-2.123,9.19-5.765
		c9.732-20.143,24.161-37.235,41.563-50.241l17.263,23.903c-26.037,19.76-42.884,51.026-42.884,86.157
		c0,59.613,48.499,108.112,108.112,108.112S364.112,315.613,364.112,256c0-5.633-4.567-10.199-10.199-10.199h-35.499
		c-4.891-30.037-31.017-53.036-62.413-53.036c-34.868,0-63.235,28.367-63.235,63.235s28.367,63.235,63.235,63.235
		c5.632,0,10.199-4.566,10.199-10.199s-4.567-10.199-10.199-10.199c-23.62,0-42.837-19.216-42.837-42.837
		S232.38,213.163,256,213.163S298.837,232.38,298.837,256c0,5.633,4.567,10.199,10.199,10.199h34.088
		c-5.067,43.58-42.206,77.514-87.124,77.514c-48.366,0-87.713-39.349-87.713-87.713s39.347-87.713,87.713-87.713
		c5.632,0,10.199-4.566,10.199-10.199c0-5.633-4.567-10.199-10.199-10.199c-17.17,0-33.414,4.03-47.846,11.183l-17.437-24.143
		c19.767-10.681,42.153-16.619,65.283-16.619c5.632,0,10.199-4.566,10.199-10.199S261.632,97.912,256,97.912
		c-30.299,0-59.741,8.599-85.145,24.867c-24.724,15.832-44.529,38.146-57.276,64.528
		C111.127,192.379,113.253,198.478,118.325,200.927z"/>
</g>
</svg>