<svg xmlns="http://www.w3.org/2000/svg" viewBox="0 0 64 80" x="0px" y="0px"><path d="M52,51h-9c-1.103,0-2,.897-2,2v5c0,1.103,.897,2,2,2h9c1.103,0,2-.897,2-2v-5c0-1.103-.897-2-2-2Zm-9,7v-5h9v5h-9Z"/><path d="M57.895,26.553c-.169-.339-.516-.553-.895-.553h-13.403l2.34-8.885c.136-.516,.062-1.054-.208-1.515-.271-.464-.707-.793-1.225-.928l-17.532-4.61c-.521-.136-1.061-.061-1.521,.212-.458,.271-.785,.705-.918,1.221l-3.824,14.505H7c-.379,0-.725,.214-.895,.553L.211,38.342c-.138,.276-.211,.586-.211,.895v4.211c0,.962,.631,1.747,1.571,1.953,.938,.211,1.842-.24,2.246-1.115l2.184-4.731v22.446c0,1.103,.897,2,2,2H56c1.103,0,2-.897,2-2v-22.447l2.184,4.732c.338,.732,1.026,1.165,1.792,1.165,.149,0,.3-.016,.453-.05,.939-.206,1.571-.991,1.571-1.953v-4.211c0-.309-.073-.618-.211-.895l-5.895-11.789ZM26.466,11.997l17.538,4.608-2.474,9.395h-1.235l-.921-1.576c-.787-1.345-2.525-1.801-3.877-1.018l-1.835,1.073-.853-2.479c-.304-.898-1.033-1.579-1.95-1.823-.92-.241-1.891-.014-2.601,.615l-5.36,4.759,3.57-13.554Zm11.511,14.003h-2.955l1.479-.865c.399-.232,.913-.097,1.145,.3l.331,.565Zm-5.908,0h-6.666l4.181-3.712c.297-.264,.63-.215,.76-.178,.128,.034,.441,.154,.57,.535l1.155,3.354ZM2,43.447v-4.211l4-8v3.544l-4,8.667Zm6,18.553v-25.397l1.854,8.808c.193,.921,1.016,1.589,1.957,1.589h3.188c.552,0,1-.447,1-1s-.448-1-1-1h-3.188l-3.579-17H55.768l-3.579,17H19c-.552,0-1,.447-1,1s.448,1,1,1H52.188c.941,0,1.764-.668,1.957-1.588l1.854-8.809v25.396H8Zm54-18.553l-4-8.667v-3.544l4,8v4.211Z"/><path d="M8.218,22.918h0c.433,1.001,1.412,1.6,2.439,1.6,.351,0,.708-.07,1.05-.219,1.341-.582,1.96-2.145,1.38-3.484v-.003l-1.331-3.075,3.773-2.888,.77,1.78c-.215,.035-.429,.087-.634,.176-.65,.281-1.152,.8-1.413,1.458-.261,.659-.25,1.38,.032,2.03,.433,1,1.412,1.599,2.438,1.599,.351,0,.708-.07,1.049-.218,.65-.281,1.152-.799,1.413-1.458,.261-.659,.249-1.378-.031-2.027v-.003l-3.282-7.583c-.123-.282-.368-.493-.666-.57-.299-.075-.615-.013-.86,.174l-5.41,4.142c-.364,.279-.492,.77-.31,1.191l1.608,3.716c-.216,.035-.429,.087-.634,.176-1.342,.581-1.962,2.146-1.381,3.487Zm9.108-3.438c-.064,.162-.188,.289-.347,.358-.329,.143-.715-.009-.859-.34-.069-.159-.072-.337-.007-.499,.064-.162,.188-.289,.347-.358,.161-.069,.338-.073,.5-.008,.161,.063,.288,.187,.358,.346v.002h.002c.069,.161,.071,.337,.008,.499Zm-2.781-6.907l.166,.384-3.773,2.888-.166-.384,3.773-2.889Zm-4.15,8.693c.159-.068,.335-.071,.498-.008,.161,.064,.288,.187,.358,.347v.002h.002c.142,.331-.01,.715-.34,.857-.33,.142-.715-.01-.858-.339-.143-.331,.009-.716,.34-.859Z"/><path d="M55.988,8.485c-.404-.226-1.167-.714-1.734-1.448-.538-.698-.819-1.498-.959-2.047-.218-.849-.628-1.598-1.186-2.166-2.322-2.373-5.289-.836-9.045,1.11-2.264,1.173-3.369,2.381-3.378,3.694-.006,.92,.661,1.745,1.585,1.962,.661,.155,1.983,.445,3.408,.647,1.2,.17,2.197,1.43,2.474,1.812h0c.143,.197,.291,.39,.446,.579,.299,.365,1.264,1.648,1.123,2.854-.168,1.443-.223,2.788-.241,3.46-.026,.95,.603,1.805,1.494,2.032,.19,.049,.385,.073,.583,.073,1.128,0,2.395-.791,3.849-2.399,2.837-3.139,5.078-5.617,3.375-8.467-.409-.684-1.03-1.271-1.795-1.696Zm-3.064,8.821c-1.712,1.895-2.42,1.738-2.443,1.689,.017-.64,.069-1.917,.228-3.281,.078-.67-.026-1.315-.211-1.905,.281,.596,.79,1.084,1.459,1.32,.279,.098,.563,.145,.843,.145,1.053,0,2.041-.657,2.41-1.705,.467-1.328-.234-2.787-1.562-3.254-.643-.228-1.334-.189-1.95,.106-.614,.295-1.077,.812-1.303,1.454-.173,.493-.184,1.004-.063,1.475-.362-.896-.88-1.617-1.185-1.989-.13-.159-.255-.32-.375-.486-.298-.411-.758-.961-1.353-1.455,.269,.09,.543,.136,.812,.136,1.053,0,2.042-.657,2.411-1.706,.465-1.327-.235-2.787-1.562-3.253-.643-.226-1.334-.188-1.95,.107-.614,.295-1.077,.811-1.303,1.453-.321,.915-.08,1.884,.53,2.556-.425-.217-.889-.386-1.397-.458-1.347-.191-2.604-.467-3.274-.616,0-.03,.031-.757,2.298-1.932,3.844-1.99,5.526-2.683,6.697-1.486,.312,.318,.546,.756,.677,1.265,.188,.729,.567,1.803,1.313,2.771,.746,.967,1.686,1.606,2.344,1.974,.459,.255,.823,.593,1.052,.976,.858,1.437-.239,2.888-3.142,6.099Zm-.642-4.767c.049-.14,.149-.251,.282-.314,.076-.037,.157-.055,.238-.055,.062,0,.124,.011,.184,.031,.287,.101,.438,.417,.338,.703-.101,.287-.417,.441-.703,.338-.287-.101-.438-.417-.338-.703Zm-4.569-5.717h0c.049-.14,.149-.251,.282-.314,.076-.036,.157-.055,.238-.055,.062,0,.124,.011,.183,.031,.287,.101,.438,.417,.338,.703s-.415,.44-.704,.338c-.287-.101-.438-.417-.337-.703Z"/><path d="M21.029,10.219c.21,.066,.425,.1,.638,.1,.479,0,.949-.166,1.33-.483l6.252-5.21c.65-.542,.904-1.382,.664-2.193-.24-.811-.911-1.377-1.75-1.477L20.295,.015c-.683-.081-1.365,.18-1.818,.701-.453,.521-.619,1.229-.444,1.897l1.615,6.149c.182,.693,.698,1.237,1.381,1.456Zm-.971-8.218l7.868,.94,.043,.146-6.252,5.21-.134-.043-1.615-6.149,.09-.104Z"/><path d="M55.82,24.204c.132,.059,.269,.086,.405,.086,.383,0,.749-.222,.915-.595,.329-.741,.783-1.411,1.35-1.99,.609-.624,1.218-.986,1.81-1.079,.545-.086,.918-.598,.833-1.143-.085-.546-.596-.915-1.143-.834-1.027,.161-2.014,.719-2.931,1.657-.734,.751-1.322,1.618-1.748,2.578-.224,.505,.004,1.096,.509,1.319Z"/><path d="M34,7c.383,0,.749-.222,.915-.595,.329-.741,.783-1.411,1.35-1.99,.609-.624,1.218-.986,1.81-1.079,.545-.086,.918-.598,.833-1.143-.085-.546-.595-.912-1.143-.834-1.027,.161-2.014,.719-2.931,1.657-.734,.751-1.322,1.618-1.748,2.578-.224,.505,.004,1.096,.509,1.319,.132,.059,.269,.086,.405,.086Z"/><path d="M14.577,6.773c.184,.327,.523,.511,.874,.511,.166,0,.333-.041,.488-.128,.482-.27,.654-.879,.384-1.36-.843-1.505-2.162-2.745-3.715-3.493-.496-.243-1.095-.032-1.335,.466s-.031,1.096,.467,1.335c1.186,.572,2.194,1.521,2.838,2.67Z"/><text x="0" y="79" fill="#000000" font-size="5px" font-weight="bold" font-family="'Helvetica Neue', Helvetica, Arial-Unicode, Arial, Sans-serif">Created by ToZIcon</text><text x="0" y="84" fill="#000000" font-size="5px" font-weight="bold" font-family="'Helvetica Neue', Helvetica, Arial-Unicode, Arial, Sans-serif">from the Noun Project</text></svg>